# xmcd CD database file
#
# Track frame offsets:
#	150
#	17235
#	37911
#	58092
#	77910
#	102398
#	122876
#	143392
#	164451
#	183795
#	202551
#
# Disc length: 2981 seconds
#
# Revision: 0
# Processed by: cddbd v1.4PL0 Copyright (c) Steve Scherf et al.
# Submitted via: CDex 1.50Beta7
#
DISCID=860ba30b
DTITLE=Vorrious Artists - Merengue Millennium
DYEAR=1999
DGENRE=Merengue
TTITLE0=Gozadera VI
TTITLE1=Tu sonrisa
TTITLE2=Como duele
TTITLE3=Como baila
TTITLE4=La mujer de mi vida
TTITLE5=Quizas si, quizas no 
TTITLE6=Locamente enamorado
TTITLE7=Que te pasa conmigo
TTITLE8=Solo tu
TTITLE9=Ya te olivide
TTITLE10=Me esttan hablando del ciele
EXTD=YEAR: 1999
EXTT0=
EXTT1=
EXTT2=
EXTT3=
EXTT4=
EXTT5=
EXTT6=
EXTT7=
EXTT8=
EXTT9=
EXTT10=
PLAYORDER=
